<svg xmlns="http://www.w3.org/2000/svg" viewBox="0 0 200 200" width="200" height="200"><g transform="translate(0 0) scale(1)"><g fill="none" stroke-width="20"><circle cx="100" cy="100" r="78" stroke="#A94F2B" stroke-dasharray="88.02 402.07" transform="rotate(-90 100 100)"/><circle cx="100" cy="100" r="78" stroke="#C99A3E" stroke-dasharray="88.02 402.07" transform="rotate(-18 100 100)"/><circle cx="100" cy="100" r="78" stroke="#8A976A" stroke-dasharray="88.02 402.07" transform="rotate(54 100 100)"/><circle cx="100" cy="100" r="78" stroke="#6F93AB" stroke-dasharray="88.02 402.07" transform="rotate(126 100 100)"/><circle cx="100" cy="100" r="78" stroke="#B08D74" stroke-dasharray="88.02 402.07" transform="rotate(198 100 100)"/></g><g transform="translate(48 48) scale(0.52)"><path d="M60,30 C90,15 130,20 150,40 C165,55 160,70 145,75 C130,80 120,72 110,80 C100,88 115,100 130,105 C150,112 165,125 160,145 C155,165 130,175 105,170 C80,165 70,180 55,172 C35,162 40,140 35,120 C30,100 22,85 30,65 C36,48 45,38 60,30 Z" fill="#F4EFE6"/></g></g></svg>